<svg width="19" height="17" viewBox="0 0 19 17" fill="none" xmlns="http://www.w3.org/2000/svg">
<path fill-rule="evenodd" clip-rule="evenodd" d="M3.39789 7.58396L8.84894 1.81442C8.94321 1.72116 9.01773 1.60992 9.06805 1.48731C9.11838 1.3647 9.14349 1.23323 9.14188 1.10073C9.14027 0.968228 9.11198 0.837404 9.05869 0.716048C9.00541 0.594692 8.92821 0.485285 8.83171 0.394341C8.7352 0.303397 8.62136 0.232776 8.49696 0.186682C8.37256 0.140588 8.24014 0.119964 8.10759 0.126038C7.97504 0.132113 7.84507 0.164761 7.72542 0.222039C7.60577 0.279317 7.49888 0.360053 7.41112 0.459441L0.387194 7.89417C0.2105 8.08153 0.114016 8.33037 0.118285 8.58771C0.122554 8.84505 0.227238 9.09056 0.41005 9.27197L7.43502 16.2346C7.52555 16.3327 7.63504 16.4114 7.75688 16.4661C7.87872 16.5208 8.01039 16.5502 8.14393 16.5527C8.27748 16.5551 8.41014 16.5306 8.53392 16.4804C8.65769 16.4303 8.77001 16.3556 8.86411 16.261C8.95821 16.1663 9.03213 16.0536 9.08141 15.9296C9.13069 15.8056 9.15432 15.6729 9.15086 15.5396C9.14741 15.4062 9.11694 15.275 9.0613 15.1537C9.00566 15.0324 8.926 14.9237 8.82713 14.834L3.50594 9.55832H17.8291C18.0857 9.55001 18.329 9.44236 18.5076 9.25814C18.6862 9.07391 18.7861 8.82755 18.7861 8.57114C18.7861 8.31472 18.6862 8.06836 18.5076 7.88414C18.329 7.69991 18.0857 7.59226 17.8291 7.58396H3.39789Z" fill="#222222"/>
</svg>
