<svg width="25" height="26" viewBox="0 0 25 26" fill="none" xmlns="http://www.w3.org/2000/svg">
<path d="M21.0357 7.8776H19.816V4.20443C19.816 3.23024 19.4305 2.29595 18.7442 1.6071C18.058 0.918244 17.1273 0.53125 16.1568 0.53125H3.95945C2.98897 0.53125 2.05824 0.918244 1.372 1.6071C0.685769 2.29595 0.300247 3.23024 0.300247 4.20443V18.8971C0.301449 19.1389 0.373904 19.3748 0.508481 19.5753C0.643059 19.7757 0.833735 19.9317 1.05648 20.0236C1.20124 20.0921 1.35998 20.1257 1.51998 20.1215C1.68051 20.1225 1.83964 20.0916 1.98824 20.0306C2.13685 19.9697 2.27202 19.8799 2.38599 19.7665L5.81344 16.3137H7.61865V18.0768C7.61865 19.051 8.00417 19.9853 8.6904 20.6741C9.37664 21.363 10.3074 21.75 11.2778 21.75H19.7184L22.6092 24.664C22.7231 24.7775 22.8583 24.8673 23.0069 24.9282C23.1555 24.9891 23.3147 25.02 23.4752 25.0191C23.6352 25.0232 23.7939 24.9897 23.9387 24.9211C24.1614 24.8293 24.3521 24.6733 24.4867 24.4728C24.6213 24.2724 24.6937 24.0364 24.6949 23.7947V11.5508C24.6949 10.5766 24.3094 9.64231 23.6232 8.95345C22.9369 8.2646 22.0062 7.8776 21.0357 7.8776ZM7.61865 11.5508V13.8649H5.31335C5.15283 13.864 4.9937 13.8948 4.84509 13.9558C4.69648 14.0167 4.56131 14.1065 4.44734 14.22L2.73971 15.9463V4.20443C2.73971 3.8797 2.86822 3.56827 3.09697 3.33865C3.32571 3.10903 3.63595 2.98003 3.95945 2.98003H16.1568C16.4803 2.98003 16.7905 3.10903 17.0193 3.33865C17.248 3.56827 17.3765 3.8797 17.3765 4.20443V7.8776H11.2778C10.3074 7.8776 9.37664 8.2646 8.6904 8.95345C8.00417 9.64231 7.61865 10.5766 7.61865 11.5508ZM22.2554 20.8439L21.0357 19.6195C20.9228 19.5038 20.788 19.4118 20.6394 19.3487C20.4907 19.2857 20.3311 19.2529 20.1697 19.2522H11.2778C10.9544 19.2522 10.6441 19.1232 10.4154 18.8936C10.1866 18.664 10.0581 18.3525 10.0581 18.0278V11.5508C10.0581 11.2261 10.1866 10.9146 10.4154 10.685C10.6441 10.4554 10.9544 10.3264 11.2778 10.3264H21.0357C21.3592 10.3264 21.6695 10.4554 21.8982 10.685C22.1269 10.9146 22.2554 11.2261 22.2554 11.5508V20.8439Z" fill="#999999"/>
</svg>
