<svg width="23" height="23" viewBox="0 0 23 23" fill="none" xmlns="http://www.w3.org/2000/svg">
<path d="M1.30508 20.1318V21.544C1.30508 21.8373 1.42115 22.1186 1.62776 22.326C1.83437 22.5334 2.11459 22.6499 2.40677 22.6499H3.50847C3.80066 22.6499 4.08088 22.5334 4.28749 22.326C4.49409 22.1186 4.61017 21.8373 4.61017 21.544V20.4381H17.8305V21.544C17.8305 21.8373 17.9466 22.1186 18.1532 22.326C18.3598 22.5334 18.64 22.6499 18.9322 22.6499H20.0339C20.3261 22.6499 20.6063 22.5334 20.8129 22.326C21.0195 22.1186 21.1356 21.8373 21.1356 21.544V20.1318C21.4698 19.9394 21.7477 19.6619 21.9411 19.3274C22.1345 18.9929 22.2367 18.6131 22.2373 18.2263V14.9086C22.2373 13.9896 21.6787 13.2033 20.8844 12.8682L19.3773 8.32959C19.1587 7.6688 18.7381 7.09397 18.1755 6.68678C17.6128 6.2796 16.9366 6.06077 16.243 6.06139H6.19771C5.50407 6.06077 4.82788 6.2796 4.26521 6.68678C3.70254 7.09397 3.28202 7.6688 3.06339 8.32959L1.55627 12.8682C1.15558 13.0367 0.813406 13.3202 0.572711 13.6832C0.332015 14.0462 0.203528 14.4725 0.203384 14.9086V18.2263C0.203384 19.0425 0.648469 19.748 1.30508 20.1318ZM4.05932 18.2263C3.84223 18.2262 3.62728 18.1833 3.42675 18.0998C3.22621 18.0163 3.04402 17.894 2.89057 17.7399C2.58065 17.4286 2.40663 17.0065 2.40677 16.5664C2.40692 16.1263 2.58123 15.7042 2.89134 15.3931C3.20146 15.082 3.62199 14.9074 4.06042 14.9075C4.49885 14.9077 4.91926 15.0826 5.22917 15.3939C5.53908 15.7052 5.71311 16.1274 5.71296 16.5675C5.71282 17.0076 5.53851 17.4296 5.22839 17.7407C4.91827 18.0518 4.49775 18.2265 4.05932 18.2263ZM18.3814 18.2263C17.9429 18.2262 17.5225 18.0512 17.2126 17.7399C16.9027 17.4286 16.7287 17.0065 16.7288 16.5664C16.729 16.1263 16.9033 15.7042 17.2134 15.3931C17.5235 15.082 17.944 14.9074 18.3825 14.9075C18.8209 14.9077 19.2413 15.0826 19.5512 15.3939C19.8611 15.7052 20.0351 16.1274 20.035 16.5675C20.0349 17.0076 19.8606 17.4296 19.5504 17.7407C19.2403 18.0518 18.8198 18.2265 18.3814 18.2263ZM6.19771 8.27319H16.2419C16.4732 8.27314 16.6986 8.34617 16.8863 8.48194C17.074 8.61771 17.2143 8.80933 17.2874 9.02963L18.5058 12.6968H3.93483L5.1522 9.02963C5.30313 8.57732 5.72398 8.27319 6.19771 8.27319Z" fill="#999999"/>
<path d="M20.7805 6.0027C21.4968 6.2425 22.2373 5.70948 22.2373 4.95411C22.2373 4.47861 21.9333 4.05635 21.4824 3.90547L11.5685 0.58821C11.3327 0.508987 11.0771 0.512496 10.8436 0.598163L0.929703 4.21697C0.49355 4.37618 0.203384 4.79099 0.203384 5.25529C0.203384 6.02293 0.966646 6.55683 1.68774 6.2936L10.251 3.16765C10.8893 2.93464 11.5877 2.92523 12.2321 3.14093L20.7805 6.0027Z" fill="#999999"/>
</svg>
