<svg width="22" height="22" viewBox="0 0 22 22" fill="none" xmlns="http://www.w3.org/2000/svg">
<path d="M20.2953 7.59418L13.1259 1.25564C12.1018 0.227541 10.4343 0.227541 9.4524 1.21316L2.19844 7.63666C1.4959 8.34189 1.10654 9.28502 1.10654 10.2876V18.7758C1.10654 20.1863 2.24923 21.3333 3.65431 21.3333H18.8902C20.2868 21.3333 21.4295 20.1863 21.4295 18.7758V10.2876C21.4295 9.28502 21.0401 8.34189 20.2953 7.59418ZM19.7366 18.7758C19.7366 19.2516 19.3557 19.634 18.8902 19.634H13.5238V14.1621C13.5238 13.6693 13.1344 13.2785 12.6435 13.2785H9.89255C9.41008 13.2785 9.01226 13.6693 9.01226 14.1621V19.634H3.65431C3.18031 19.634 2.79941 19.2516 2.79941 18.7758V10.2876C2.79941 9.75234 3.01948 9.21705 3.35806 8.86868L10.612 2.45368C10.7898 2.27525 11.0183 2.18178 11.2553 2.18178C11.5092 2.18178 11.7632 2.28374 11.9663 2.48766L19.1356 8.8347C19.525 9.22554 19.7366 9.74384 19.7366 10.2876V18.7758Z" fill="#999999" stroke="#999999" stroke-width="0.5"/>
</svg>
