<svg width="21" height="25" viewBox="0 0 21 25" fill="none" xmlns="http://www.w3.org/2000/svg">
<path d="M5.28537 6.0385C5.28537 9.08363 7.75269 11.5593 10.7892 11.5593C13.826 11.5593 16.2931 9.07608 16.2931 6.03117C16.2931 2.98605 13.8258 0.510422 10.7892 0.510422C7.75258 0.510422 5.28537 2.98616 5.28537 6.0385ZM6.99702 6.03117C6.99702 3.93699 8.69556 2.22666 10.7892 2.22666C12.8829 2.22666 14.5815 3.93699 14.5815 6.03117C14.5815 8.12521 12.8758 9.83569 10.7892 9.83569C8.70271 9.83569 6.99702 8.12521 6.99702 6.03117Z" fill="white" stroke="white" stroke-width="0.25"/>
<path d="M15.641 23.5332H5.45931C3.15743 23.5332 1.18887 21.3994 1.18887 18.6337C1.18887 15.8688 3.16577 13.7343 5.45931 13.7343H15.641C17.9423 13.7343 19.9114 15.8776 19.9114 18.6337C19.9114 21.3899 17.9423 23.5332 15.641 23.5332ZM5.45931 14.749C3.48025 14.749 1.96889 16.554 1.96889 18.6337C1.96889 20.7135 3.48025 22.5185 5.45931 22.5185H15.641C17.62 22.5185 19.1314 20.7135 19.1314 18.6337C19.1314 16.554 17.62 14.749 15.641 14.749H5.45931Z" fill="white" stroke="white"/>
</svg>
